<svg xmlns="http://www.w3.org/2000/svg" width="64" height="64" viewBox="0 0 64 64">
  <defs>
    <radialGradient id="bg" cx="50%" cy="35%" r="75%">
      <stop offset="0%" stop-color="#1e4a7a"/>
      <stop offset="55%" stop-color="#0e2a4a"/>
      <stop offset="100%" stop-color="#0a1628"/>
    </radialGradient>
    <linearGradient id="fish" x1="0%" y1="0%" x2="100%" y2="100%">
      <stop offset="0%" stop-color="#ffd76a"/>
      <stop offset="60%" stop-color="#ff9b3d"/>
      <stop offset="100%" stop-color="#e85a2a"/>
    </linearGradient>
    <linearGradient id="finStripe" x1="0%" y1="0%" x2="0%" y2="100%">
      <stop offset="0%" stop-color="#ffffff" stop-opacity="0.55"/>
      <stop offset="100%" stop-color="#ffffff" stop-opacity="0.05"/>
    </linearGradient>
  </defs>

  <rect width="64" height="64" fill="url(#bg)"/>

  <g transform="translate(32 32) scale(0.12) translate(-256 -256)">
    <g opacity="0.85">
      <circle cx="120" cy="120" r="14" fill="#ffffff" opacity="0.5"/>
      <circle cx="380" cy="170" r="9"  fill="#ffffff" opacity="0.4"/>
      <circle cx="160" cy="380" r="11" fill="#ffffff" opacity="0.35"/>
      <circle cx="400" cy="380" r="7"  fill="#ffffff" opacity="0.4"/>
      <circle cx="90"  cy="260" r="6"  fill="#ffffff" opacity="0.35"/>
    </g>

    <g transform="translate(256 256)">
      <path d="M -150 -10 L -210 -90 L -210 90 L -150 10 Z"
            fill="url(#fish)" opacity="0.95"/>
      <path d="M -150 -10 L -210 -90 L -210 90 L -150 10 Z"
            fill="url(#finStripe)"/>

      <ellipse cx="0" cy="0" rx="170" ry="95" fill="url(#fish)"/>

      <path d="M -30 -85 Q 10 -135 80 -90 L 30 -45 Z"
            fill="url(#fish)" opacity="0.9"/>
      <path d="M -30 -85 Q 10 -135 80 -90 L 30 -45 Z"
            fill="url(#finStripe)"/>

      <path d="M -20 80 Q 30 130 90 90 L 40 50 Z"
            fill="url(#fish)" opacity="0.9"/>

      <circle cx="110" cy="-20" r="22" fill="#ffffff"/>
      <circle cx="116" cy="-20" r="13" fill="#0a1628"/>
      <circle cx="120" cy="-24" r="5"  fill="#ffffff"/>

      <path d="M 145 -8 Q 168 0 145 8" stroke="#0a1628" stroke-width="4"
            fill="none" stroke-linecap="round" opacity="0.75"/>
    </g>
  </g>
</svg>